<svg xmlns="http://www.w3.org/2000/svg" width="25" height="21" viewBox="0 0 25 21">
  <g clip-path="url(#clip0_2_61)">
    <path d="M0.0117188 7.01953L0 3.15625C0 2.75391 0.371094 2.45703 0.761719 2.54297L2.15234 2.85156C2.56641 2.94141 2.90234 3.23828 3.05078 3.63281L3.75 5.5L8.72266 6.96875L7.10156 1.29688C6.98828 0.898438 7.28906 0.5 7.70312 0.5H9.26953C9.72266 0.5 10.1367 0.742187 10.3594 1.13672L14.6172 8.70703L18.8047 9.94531C19.4258 10.1289 20.0078 10.4336 20.5117 10.8359L21.8555 11.9141C22.793 12.6641 22.5625 14.1523 21.4375 14.5781C19.8281 15.1875 18.0703 15.2852 16.4062 14.8516L4.75391 11.8203C4.32031 11.707 3.92578 11.4805 3.60938 11.1602L0.371094 7.89844C0.140625 7.66406 0.0078125 7.35156 0.0078125 7.01953H0.0117188ZM1.25 18H23.75C24.4414 18 25 18.5586 25 19.25C25 19.9414 24.4414 20.5 23.75 20.5H1.25C0.558594 20.5 0 19.9414 0 19.25C0 18.5586 0.558594 18 1.25 18ZM5 14.875C5 14.5435 5.1317 14.2255 5.36612 13.9911C5.60054 13.7567 5.91848 13.625 6.25 13.625C6.58152 13.625 6.89946 13.7567 7.13388 13.9911C7.3683 14.2255 7.5 14.5435 7.5 14.875C7.5 15.2065 7.3683 15.5245 7.13388 15.7589C6.89946 15.9933 6.58152 16.125 6.25 16.125C5.91848 16.125 5.60054 15.9933 5.36612 15.7589C5.1317 15.5245 5 15.2065 5 14.875ZM10 14.25C10.3315 14.25 10.6495 14.3817 10.8839 14.6161C11.1183 14.8505 11.25 15.1685 11.25 15.5C11.25 15.8315 11.1183 16.1495 10.8839 16.3839C10.6495 16.6183 10.3315 16.75 10 16.75C9.66848 16.75 9.35054 16.6183 9.11612 16.3839C8.8817 16.1495 8.75 15.8315 8.75 15.5C8.75 15.1685 8.8817 14.8505 9.11612 14.6161C9.35054 14.3817 9.66848 14.25 10 14.25Z" fill="#1447CC"/>
  </g>
  <defs>
    <clipPath id="clip0_2_61">
      <rect width="25" height="20" fill="white" transform="translate(0 0.5)"/>
    </clipPath>
  </defs>
</svg>