<svg xmlns="http://www.w3.org/2000/svg" width="25" height="21" viewBox="0 0 25 21">
  <g clip-path="url(#clip0_14_108)">
    <path d="M14.8828 4.98827L7.26953 2.1328C6.61719 1.89061 5.89453 1.92577 5.27344 2.23827L3.48047 3.1328C3.04687 3.35155 3.01562 3.95702 3.42187 4.21874L9.16015 7.91014L5.3125 9.87499L3.03906 8.86327C2.69922 8.71092 2.30469 8.71874 1.97266 8.88671L0.714844 9.51561C0.351562 9.69921 0.253906 10.1719 0.519531 10.4805L3.375 13.8125C3.61328 14.0898 3.96094 14.25 4.32422 14.25H9.70312C9.89844 14.25 10.0898 14.2031 10.2617 14.1172L20.9219 8.78905C22.7383 7.87889 24.1445 6.31639 24.8594 4.41405C25.2305 3.42967 24.5 2.37499 23.4453 2.37499H21.2031C20.4141 2.37499 19.6328 2.56249 18.9297 2.92186L14.8828 4.98827ZM0 19.25C0 19.9414 0.558594 20.5 1.25 20.5H23.75C24.4414 20.5 25 19.9414 25 19.25C25 18.5586 24.4414 18 23.75 18H1.25C0.558594 18 0 18.5586 0 19.25Z" fill="#1447CC"/>
  </g>
  <defs>
    <clipPath id="clip0_14_108">
      <rect width="25" height="20" fill="white" transform="translate(0 0.5)"/>
    </clipPath>
  </defs>
</svg>